<mxfile host="app.diagrams.net" modified="2024-04-14T08:54:35.219Z" agent="Mozilla/5.0 (Macintosh; Intel Mac OS X 10_15_7) AppleWebKit/537.36 (KHTML, like Gecko) Chrome/123.0.0.0 Safari/537.36" version="24.2.2" etag="2JD4SJReK80E1hlyELhR" type="github">
  <diagram name="第 1 页" id="D0K2fg_T7efINd-alhJc">
    <mxGraphModel>
      <root>
        <mxCell id="0" />
        <mxCell id="1" parent="0" />
      </root>
    </mxGraphModel>
  </diagram>
</mxfile>
